<svg xmlns="http://www.w3.org/2000/svg" viewBox="0 0 64 64" width="64" height="64" role="img" aria-label="Forger Digital Solutions mark">
  <defs>
    <linearGradient id="fds-blue" x1="8" y1="8" x2="55" y2="56" gradientUnits="userSpaceOnUse">
      <stop offset="0" stop-color="#2f78ff" />
      <stop offset="1" stop-color="#1743b8" />
    </linearGradient>
    <linearGradient id="fds-silver" x1="18" y1="12" x2="46" y2="52" gradientUnits="userSpaceOnUse">
      <stop offset="0" stop-color="#ffffff" />
      <stop offset="1" stop-color="#aeb8c8" />
    </linearGradient>
  </defs>

  <!-- Compact adaptation of the established FDS orbital monogram. -->
  <circle cx="32" cy="32" r="29" fill="#080b12" stroke="#1a2438" stroke-width="2" />
  <path d="M9 29a24 24 0 0 1 46 0" fill="none" stroke="url(#fds-blue)" stroke-width="3.5" stroke-linecap="round" />
  <path d="M12 38a22 22 0 0 0 40 0" fill="none" stroke="url(#fds-blue)" stroke-width="2.4" stroke-linecap="round" />
  <path d="M17 26h16l-4 5h-7v3h9l-4 5h-5v7l-7 5 3-25Z" fill="url(#fds-blue)" />
  <path d="M28 26h7c7 0 11 4 11 10s-4 10-11 10h-9l3-5h5c3 0 5-2 5-5s-2-5-5-5h-4l-4 5h-7l9-10Z" fill="url(#fds-silver)" />
  <path d="M40 26h10l-4 5h-7c-2 0-3 1-3 2s1 2 3 2h4c4 0 6 2 6 5s-3 6-7 6H32l4-5h6c2 0 3-1 3-2s-1-2-3-2h-4c-4 0-6-2-6-5s3-6 8-6Z" fill="url(#fds-blue)" />
</svg>
